<svg width="24" height="24" viewBox="0 0 24 24" fill="none" xmlns="http://www.w3.org/2000/svg">
<g clip-path="url(#clip0_10_1667)">
<path d="M4.69629 10.9951L10.6201 13.4033C11.0947 13.6055 11.5518 13.79 12 13.79C12.4482 13.79 12.9141 13.6055 13.3799 13.4033L19.3037 10.9951C19.6992 10.8281 19.9629 10.4854 19.9629 10.0811C19.9629 9.42188 19.4795 8.96484 18.8818 8.96484C18.5654 8.96484 18.1436 9.14941 17.8359 9.27246L12 11.6367L6.16406 9.27246C5.85645 9.14941 5.44336 8.96484 5.11816 8.96484C4.52051 8.96484 4.03711 9.42188 4.03711 10.0811C4.03711 10.4854 4.30078 10.8281 4.69629 10.9951Z" fill="#1C1C1E"/>
</g>
<defs>
<clipPath id="clip0_10_1667">
<rect width="24" height="24" fill="white"/>
</clipPath>
</defs>
</svg>
