<svg width="24" height="24" viewBox="0 0 24 24" fill="none" xmlns="http://www.w3.org/2000/svg">
<g clip-path="url(#clip0_2_33)">
<path d="M13.7754 10.8721C13.9775 10.8721 14.1621 10.8018 14.3115 10.6523L17.8535 7.10156L19.0576 5.79199L18.9082 8.06836V9.33398C18.9082 9.73828 19.2158 10.0459 19.6289 10.0635C20.042 10.0723 20.3848 9.75586 20.3848 9.34277V4.39453C20.3848 3.81445 20.0859 3.49805 19.4971 3.49805H14.5225C14.1094 3.49805 13.7842 3.84082 13.8018 4.2627C13.8105 4.67578 14.127 4.97461 14.5225 4.97461H15.8232L18.126 4.83398L16.79 6.03809L13.248 9.58008C13.0811 9.74707 13.002 9.94043 13.002 10.1602C13.002 10.5645 13.3359 10.8721 13.7754 10.8721ZM8.08008 15.6885C10.6729 18.29 13.8281 20.2939 16.4033 20.2939C17.5547 20.2939 18.5654 19.8896 19.374 18.9932C19.8486 18.4658 20.1387 17.8594 20.1387 17.2529C20.1387 16.7871 19.9541 16.3301 19.5059 16.0137L16.7988 14.0977C16.377 13.7988 16.0254 13.6582 15.709 13.6582C15.2959 13.6582 14.9268 13.8867 14.5225 14.291L13.8809 14.9238C13.7842 15.0205 13.6611 15.0645 13.5469 15.0645C13.4062 15.0645 13.2744 15.0117 13.1777 14.959C12.6328 14.6602 11.6836 13.8516 10.8047 12.9727C9.92578 12.0938 9.1084 11.1533 8.81836 10.5908C8.76562 10.4941 8.71289 10.3711 8.71289 10.2305C8.71289 10.125 8.74805 10.002 8.85352 9.89648L9.48633 9.25488C9.88184 8.8418 10.1191 8.48145 10.1191 8.06836C10.1191 7.74316 9.97852 7.3916 9.67969 6.96973L7.77246 4.29785C7.44727 3.84082 6.98145 3.64746 6.48926 3.64746C5.8916 3.64746 5.29395 3.91113 4.7666 4.41211C3.89648 5.23828 3.50977 6.2666 3.50977 7.40039C3.50977 9.97559 5.47852 13.0957 8.08008 15.6885Z" fill="#1C1C1E"/>
</g>
<defs>
<clipPath id="clip0_2_33">
<rect width="24" height="24" fill="white"/>
</clipPath>
</defs>
</svg>
