<svg width="24" height="24" viewBox="0 0 24 24" fill="none" xmlns="http://www.w3.org/2000/svg">
<g clip-path="url(#clip0_10_922)">
<path d="M5.18848 17.0508C4.81934 17.4199 4.80176 18.0791 5.19727 18.4658C5.58398 18.8525 6.24316 18.8438 6.6123 18.4746L11.9912 13.0869L17.3789 18.4746C17.7568 18.8525 18.4072 18.8525 18.7939 18.4658C19.1719 18.0703 19.1807 17.4287 18.7939 17.0508L13.415 11.6631L18.7939 6.28418C19.1807 5.90625 19.1807 5.25586 18.7939 4.86914C18.3984 4.49121 17.7568 4.48242 17.3789 4.86035L11.9912 10.248L6.6123 4.86035C6.24316 4.49121 5.5752 4.47363 5.19727 4.86914C4.81055 5.25586 4.81934 5.91504 5.18848 6.28418L10.5762 11.6631L5.18848 17.0508Z" fill="#1C1C1E"/>
</g>
<defs>
<clipPath id="clip0_10_922">
<rect width="24" height="24" fill="white"/>
</clipPath>
</defs>
</svg>
