<svg width="24" height="24" viewBox="0 0 24 24" fill="none" xmlns="http://www.w3.org/2000/svg">
<g clip-path="url(#clip0_10_302)">
<path d="M16.834 14.5723C12.1846 14.5723 9.23145 11.6895 9.23145 7.06641C9.23145 6.05566 9.46875 4.71094 9.78516 3.99902C9.89062 3.77051 9.91699 3.6123 9.91699 3.48926C9.91699 3.20801 9.71484 2.93555 9.35449 2.93555C9.22266 2.93555 9.01172 2.9707 8.79199 3.0498C5.52246 4.35938 3.34277 7.81348 3.34277 11.4785C3.34277 16.6377 7.24512 20.3379 12.3867 20.3379C16.1133 20.3379 19.374 18.0879 20.5254 15.1523C20.6221 14.9238 20.6484 14.6953 20.6484 14.5723C20.6484 14.2295 20.3848 14.001 20.1035 14.001C19.9541 14.001 19.8135 14.0361 19.6113 14.124C18.9521 14.3525 17.8887 14.5723 16.834 14.5723Z" fill="#1C1C1E"/>
</g>
<defs>
<clipPath id="clip0_10_302">
<rect width="24" height="24" fill="white"/>
</clipPath>
</defs>
</svg>
