<svg width="24" height="24" viewBox="0 0 24 24" fill="none" xmlns="http://www.w3.org/2000/svg">
<g clip-path="url(#clip0_10_728)">
<path d="M11.9561 20.5928C12.1143 20.5928 12.3428 20.5312 12.5713 20.417C17.6074 17.8242 19.2773 16.4619 19.2773 13.3066V6.77637C19.2773 5.73926 18.873 5.36133 18.0029 5.00098C17.0361 4.59668 13.8193 3.46289 12.8789 3.14648C12.5889 3.05859 12.2637 2.99707 11.9561 2.99707C11.6572 2.99707 11.332 3.05859 11.042 3.14648C10.0928 3.44531 6.87598 4.60547 5.91797 5.00098C5.04785 5.35254 4.64355 5.73926 4.64355 6.77637V13.3066C4.64355 16.4619 6.38379 17.7012 11.3496 20.417C11.5781 20.54 11.8066 20.5928 11.9561 20.5928ZM11.9648 12.9111C11.4463 12.9111 11.1475 12.6211 11.1299 12.0938L11.0068 7.69922C10.9893 7.16309 11.376 6.77637 11.9561 6.77637C12.5186 6.77637 12.9316 7.16309 12.9141 7.70801L12.7734 12.085C12.7559 12.6299 12.4658 12.9111 11.9648 12.9111ZM11.9648 15.9434C11.3672 15.9434 10.875 15.5127 10.875 14.9326C10.875 14.3613 11.3584 13.9219 11.9648 13.9219C12.5625 13.9219 13.0459 14.3525 13.0459 14.9326C13.0459 15.5215 12.5537 15.9434 11.9648 15.9434Z" fill="#1C1C1E"/>
</g>
<defs>
<clipPath id="clip0_10_728">
<rect width="24" height="24" fill="white"/>
</clipPath>
</defs>
</svg>
