<svg width="24" height="24" viewBox="0 0 24 24" fill="none" xmlns="http://www.w3.org/2000/svg">
<g clip-path="url(#clip0_2_67)">
<path d="M12.0088 12.5771C12.3867 12.5771 12.7207 12.4014 13.1162 12.0059L20.7803 4.40332C20.4375 4.0957 19.8311 3.94629 18.9785 3.94629H4.80176C4.0459 3.94629 3.50977 4.08691 3.20215 4.36816L10.9014 12.0059C11.2881 12.4014 11.6309 12.5771 12.0088 12.5771ZM2.3584 17.8945L8.67773 11.6367L2.36719 5.40527C2.20898 5.68652 2.12109 6.15234 2.12109 6.81152V16.5234C2.12109 17.165 2.2002 17.6221 2.3584 17.8945ZM21.6416 17.8857C21.791 17.6133 21.8701 17.1562 21.8701 16.5234V6.81152C21.8701 6.16992 21.7822 5.7041 21.624 5.43164L15.3398 11.6367L21.6416 17.8857ZM5.0127 19.3887H19.1895C19.9629 19.3887 20.5078 19.2393 20.8242 18.9492L14.3906 12.5596L13.8457 13.0957C13.2393 13.6846 12.6592 13.9658 12.0088 13.9658C11.3584 13.9658 10.7695 13.6846 10.1631 13.0957L9.61816 12.5596L3.19336 18.9316C3.54492 19.2305 4.16016 19.3887 5.0127 19.3887Z" fill="#1C1C1E"/>
</g>
<defs>
<clipPath id="clip0_2_67">
<rect width="24" height="24" fill="white"/>
</clipPath>
</defs>
</svg>
