<svg width="24" height="24" viewBox="0 0 24 24" fill="none" xmlns="http://www.w3.org/2000/svg">
<g clip-path="url(#clip0_10_1712)">
<path d="M11.9912 20.7422C16.9746 20.7422 21.0879 16.6289 21.0879 11.6543C21.0879 6.67969 16.9658 2.56641 11.9824 2.56641C7.00781 2.56641 2.90332 6.67969 2.90332 11.6543C2.90332 16.6289 7.0166 20.7422 11.9912 20.7422ZM11.9912 18.9316C7.95703 18.9316 4.73145 15.6885 4.73145 11.6543C4.73145 7.62012 7.95703 4.38574 11.9824 4.38574C16.0166 4.38574 19.2598 7.62012 19.2686 11.6543C19.2773 15.6885 16.0254 18.9316 11.9912 18.9316ZM10.0225 15.9873C10.2773 16.2422 10.7959 16.2246 11.0684 15.9609L14.6455 12.5947C15.1816 12.1025 15.1816 11.2324 14.6455 10.7402L11.0684 7.37402C10.7695 7.09277 10.3125 7.08398 10.0312 7.34766C9.72363 7.6377 9.71484 8.12988 10.0137 8.41113L13.4854 11.6631L10.0137 14.9238C9.72363 15.2051 9.71484 15.6885 10.0225 15.9873Z" fill="#1C1C1E"/>
</g>
<defs>
<clipPath id="clip0_10_1712">
<rect width="24" height="24" fill="white"/>
</clipPath>
</defs>
</svg>
