<svg width="24" height="24" viewBox="0 0 24 24" fill="none" xmlns="http://www.w3.org/2000/svg">
<g clip-path="url(#clip0_10_1735)">
<path d="M11.9912 20.7422C16.9746 20.7422 21.0879 16.6289 21.0879 11.6543C21.0879 6.67969 16.9658 2.56641 11.9824 2.56641C7.00781 2.56641 2.90332 6.67969 2.90332 11.6543C2.90332 16.6289 7.0166 20.7422 11.9912 20.7422ZM11.9912 18.9316C7.95703 18.9316 4.73145 15.6885 4.73145 11.6543C4.73145 7.62012 7.95703 4.38574 11.9824 4.38574C16.0166 4.38574 19.2598 7.62012 19.2686 11.6543C19.2773 15.6885 16.0254 18.9316 11.9912 18.9316ZM13.7402 15.9873C14.0479 15.6885 14.0391 15.2051 13.7402 14.9238L10.2773 11.6631L13.7402 8.41113C14.0479 8.12988 14.0391 7.6377 13.7314 7.34766C13.4502 7.08398 12.9932 7.09277 12.6943 7.37402L9.11719 10.7402C8.58105 11.2324 8.58105 12.1025 9.11719 12.5947L12.6943 15.9609C12.9668 16.2246 13.4854 16.2422 13.7402 15.9873Z" fill="#1C1C1E"/>
</g>
<defs>
<clipPath id="clip0_10_1735">
<rect width="24" height="24" fill="white"/>
</clipPath>
</defs>
</svg>
