<svg width="24" height="24" viewBox="0 0 24 24" fill="none" xmlns="http://www.w3.org/2000/svg">
<g clip-path="url(#clip0_10_685)">
<path d="M10.5322 17.0332C11.9297 17.0332 13.2393 16.6113 14.3291 15.8906L18.1787 19.749C18.4336 19.9951 18.7588 20.1182 19.1104 20.1182C19.8398 20.1182 20.376 19.5469 20.376 18.8262C20.376 18.4922 20.2617 18.167 20.0156 17.9209L16.1924 14.0801C16.9834 12.9551 17.4492 11.5928 17.4492 10.1162C17.4492 6.31055 14.3379 3.19922 10.5322 3.19922C6.73535 3.19922 3.61523 6.31055 3.61523 10.1162C3.61523 13.9219 6.72656 17.0332 10.5322 17.0332ZM10.5322 15.1875C7.74609 15.1875 5.46094 12.9023 5.46094 10.1162C5.46094 7.33008 7.74609 5.04492 10.5322 5.04492C13.3184 5.04492 15.6035 7.33008 15.6035 10.1162C15.6035 12.9023 13.3184 15.1875 10.5322 15.1875Z" fill="#1C1C1E"/>
</g>
<defs>
<clipPath id="clip0_10_685">
<rect width="24" height="24" fill="white"/>
</clipPath>
</defs>
</svg>
