<svg width="24" height="24" viewBox="0 0 24 24" fill="none" xmlns="http://www.w3.org/2000/svg">
<g clip-path="url(#clip0_10_738)">
<path d="M11.9561 20.8125C12.1143 20.8125 12.3516 20.7598 12.5801 20.6367C17.6338 17.8857 19.3916 16.6113 19.3916 13.4121V6.77637C19.3916 5.72168 18.9873 5.34375 18.0996 4.96582C17.1328 4.55273 13.8457 3.41016 12.8965 3.08496C12.5977 2.98828 12.2637 2.92676 11.9561 2.92676C11.6572 2.92676 11.3145 3.00586 11.0244 3.08496C10.0752 3.35742 6.78809 4.56152 5.82129 4.96582C4.93359 5.33496 4.5293 5.72168 4.5293 6.77637V13.4121C4.5293 16.6113 6.28711 17.8682 11.3408 20.6367C11.5693 20.7598 11.8066 20.8125 11.9561 20.8125ZM11.9561 18.9492C11.833 18.9492 11.71 18.9053 11.4551 18.7471C7.44727 16.3037 6.19922 15.6445 6.19922 13.0869V7.05762C6.19922 6.74121 6.26074 6.61816 6.50684 6.5127C7.80762 5.99414 10.3301 5.15918 11.4902 4.70215C11.6924 4.63184 11.833 4.60547 11.9561 4.60547C12.0879 4.60547 12.2285 4.63184 12.4307 4.70215C13.5908 5.15918 16.0957 6.04688 17.4053 6.5127C17.6602 6.60938 17.7217 6.74121 17.7217 7.05762V13.0869C17.7217 15.6621 16.4209 16.3564 12.4658 18.7471C12.2109 18.9053 12.0879 18.9492 11.9561 18.9492ZM11.0156 15.583C11.3408 15.583 11.6133 15.4248 11.7979 15.1348L15.7617 8.96484C15.8848 8.78027 15.9814 8.56934 15.9814 8.36719C15.9814 7.92773 15.5947 7.6377 15.1729 7.6377C14.9092 7.6377 14.6719 7.78711 14.4873 8.08594L10.9893 13.667L9.35449 11.6016C9.14355 11.3291 8.93262 11.2324 8.67773 11.2324C8.23828 11.2324 7.89551 11.584 7.89551 12.0234C7.89551 12.2344 7.97461 12.4277 8.12402 12.6211L10.1982 15.1436C10.4355 15.4424 10.6904 15.583 11.0156 15.583Z" fill="#1C1C1E"/>
</g>
<defs>
<clipPath id="clip0_10_738">
<rect width="24" height="24" fill="white"/>
</clipPath>
</defs>
</svg>
