<svg width="24" height="24" viewBox="0 0 24 24" fill="none" xmlns="http://www.w3.org/2000/svg">
<g clip-path="url(#clip0_10_1130)">
<path d="M16.5967 11.5752C18.5215 11.5752 20.1475 9.87012 20.1475 7.66406C20.1475 5.51074 18.5127 3.8584 16.5967 3.8584C14.6895 3.8584 13.0459 5.53711 13.0547 7.68164C13.0547 9.87012 14.6719 11.5752 16.5967 11.5752ZM6.43652 11.7773C8.11523 11.7773 9.53027 10.2832 9.53027 8.36719C9.53027 6.48633 8.09766 5.05371 6.43652 5.05371C4.77539 5.05371 3.34277 6.5127 3.35156 8.38477C3.35156 10.2832 4.7666 11.7773 6.43652 11.7773ZM1.59375 19.7578H8.18555C7.24512 18.4131 8.25586 15.7588 10.2422 14.1943C9.27539 13.5703 8.01855 13.1133 6.43652 13.1133C2.50781 13.1133 -0.0322266 16.0049 -0.0322266 18.3867C-0.0322266 19.2568 0.407227 19.7578 1.59375 19.7578ZM11.1211 19.749H22.0723C23.5225 19.749 24.0234 19.3096 24.0234 18.501C24.0234 16.2422 21.1494 13.1309 16.5967 13.1309C12.0352 13.1309 9.16992 16.2422 9.16992 18.501C9.16992 19.3096 9.6709 19.749 11.1211 19.749Z" fill="#1C1C1E"/>
</g>
<defs>
<clipPath id="clip0_10_1130">
<rect width="24" height="24" fill="white"/>
</clipPath>
</defs>
</svg>
