<svg width="24" height="24" viewBox="0 0 24 24" fill="none" xmlns="http://www.w3.org/2000/svg">
<g clip-path="url(#clip0_10_1297)">
<path d="M9.21387 19.8896H14.7773C16.0781 19.8896 16.7812 19.125 16.7812 17.8857V14.0625H20.2354C21.0176 14.0625 21.6064 13.5967 21.6064 12.8672C21.6064 12.4189 21.3955 12.1113 21.0176 11.7246L13.1514 3.84082C12.791 3.48047 12.4131 3.28711 12 3.28711C11.5869 3.28711 11.2002 3.48047 10.8486 3.84082L2.98242 11.7246C2.58691 12.1201 2.39355 12.4189 2.39355 12.8672C2.39355 13.5967 2.98242 14.0625 3.75586 14.0625H7.21875V17.8857C7.21875 19.125 7.92188 19.8896 9.21387 19.8896Z" fill="#1C1C1E"/>
</g>
<defs>
<clipPath id="clip0_10_1297">
<rect width="24" height="24" fill="white"/>
</clipPath>
</defs>
</svg>
